<?xml version="1.0" encoding="UTF-8"?>
<svg xmlns="http://www.w3.org/2000/svg" xmlns:xlink="http://www.w3.org/1999/xlink" width="12px" height="12px" viewBox="0 0 16 16" version="1.1">
  <title>眼睛_闭</title>
  <g id="页面-1" stroke="none" stroke-width="1" fill="none" fill-rule="evenodd">
    <g id="账号登录" transform="translate(-314.000000, -272.000000)" fill-rule="nonzero">
      <g id="眼睛_闭" transform="translate(314.000000, 272.000000)">
        <rect id="矩形" fill="#000000" opacity="0" x="0" y="0" width="12" height="12"></rect>
        <path d="M8,9.95636364 C5.31636364,9.95636364 2.63636364,9.13818183 0.727272734,7.50545455 C0.498325603,7.30462373 0.475532825,6.95621987 0.676363641,6.72727273 C0.877194456,6.4983256 1.22559832,6.47553282 1.45454545,6.67636364 C4.82181819,9.58545455 11.1927273,9.58545455 14.5454545,6.67636364 C14.7744017,6.47553282 15.1228055,6.4983256 15.3236364,6.72727273 C15.5244672,6.95621987 15.5016744,7.30462373 15.2727273,7.50545455 C13.3636364,9.13818181 10.6836364,9.95636364 8,9.95636364 Z M6.00727273,12.3636364 C5.97464462,12.3672393 5.94171902,12.3672393 5.90909091,12.3636364 C5.75834472,12.3429952 5.62322423,12.2599212 5.53676128,12.1347229 C5.45029833,12.0095245 5.42046175,11.8537407 5.45454545,11.7054545 L5.81818181,9.56 C5.87039782,9.25875377 6.15693558,9.05687489 6.45818181,9.10909091 C6.75942804,9.16130692 6.96130692,9.44784468 6.90909091,9.74909091 L6.54545455,11.8945455 C6.50751306,12.1628989 6.27829343,12.3626917 6.00727273,12.3636364 Z M14.1818182,11.2727273 C14.0365113,11.2724541 13.8974893,11.2134354 13.7963636,11.1090909 L12.0036364,9.29090909 C11.8490019,9.15648251 11.7827459,8.94673521 11.8320992,8.74787199 C11.8814526,8.54900878 12.0380891,8.39457834 12.2376324,8.34805059 C12.4371756,8.30152285 12.645962,8.37074714 12.7781818,8.52727273 L14.5709091,10.3454545 C14.7836025,10.5584128 14.7836025,10.9034054 14.5709091,11.1163636 C14.4659441,11.216268 14.326726,11.2722154 14.1818182,11.2727273 L14.1818182,11.2727273 Z M1.81818181,11.2727337 C1.68212712,11.2659579 1.5530515,11.2104554 1.45454545,11.1163636 C1.24185209,10.9034054 1.24185209,10.5584128 1.45454545,10.3454545 L3.24727273,8.52727273 C3.37234504,8.34733327 3.5929596,8.25971392 3.80740696,8.30480966 C4.02185431,8.3499054 4.18849346,8.51895961 4.23049912,8.73403359 C4.27250478,8.94910758 4.18172035,9.16843866 4,9.29090909 L2.20727273,11.1090909 C2.1052695,11.2143438 1.96475032,11.2734407 1.81818181,11.2727337 L1.81818181,11.2727337 Z M10.0181818,12.3636364 C9.75441241,12.362353 9.52935381,12.1725077 9.48363636,11.9127273 L9.12,9.76727273 C9.05306402,9.5664153 9.10840436,9.34496796 9.26196003,9.19921203 C9.4155157,9.0534561 9.63954475,9.0097244 9.83664339,9.08703069 C10.033742,9.16433697 10.1683017,9.3487148 10.1818182,9.56 L10.5454545,11.7054545 C10.5718834,11.8478103 10.5402361,11.9948221 10.4575727,12.1136935 C10.3749093,12.2325648 10.2481073,12.3134058 10.1054545,12.3381818 C10.0773037,12.3496087 10.0480617,12.3581376 10.0181818,12.3636364 L10.0181818,12.3636364 Z" id="形状" fill="#2A2929"></path>
      </g>
    </g>
  </g>
</svg>
