<?xml version="1.0" encoding="UTF-8"?>
<svg xmlns="http://www.w3.org/2000/svg" xmlns:xlink="http://www.w3.org/1999/xlink" width="201px" height="121px" viewBox="0 0 201 121" version="1.1">
  <!-- Generator: Sketch 63 (92445) - https://sketch.com -->
  <title>不存在</title>
  <desc>Created with Sketch.</desc>
  <defs>
    <linearGradient x1="-47.7596765%" y1="-185.963888%" x2="69.0128953%" y2="100%" id="linearGradient-1">
      <stop stop-color="#D2D2D2" offset="0%"></stop>
      <stop stop-color="#D2D2D2" stop-opacity="0" offset="100%"></stop>
    </linearGradient>
    <linearGradient x1="119.52674%" y1="-110.864112%" x2="54.5362347%" y2="55.5871768%" id="linearGradient-2">
      <stop stop-color="#D2D2D2" offset="0%"></stop>
      <stop stop-color="#D2D2D2" stop-opacity="0" offset="100%"></stop>
    </linearGradient>
    <linearGradient x1="50%" y1="-221.156912%" x2="50%" y2="100%" id="linearGradient-3">
      <stop stop-color="#D2D2D2" offset="0%"></stop>
      <stop stop-color="#D2D2D2" stop-opacity="0" offset="100%"></stop>
    </linearGradient>
    <linearGradient x1="100.463288%" y1="-97.780461%" x2="38.7410036%" y2="104.736078%" id="linearGradient-4">
      <stop stop-color="#D2D2D2" offset="0%"></stop>
      <stop stop-color="#D2D2D2" stop-opacity="0" offset="100%"></stop>
    </linearGradient>
    <linearGradient x1="50%" y1="-230.116303%" x2="50%" y2="100%" id="linearGradient-5">
      <stop stop-color="#D2D2D2" offset="0%"></stop>
      <stop stop-color="#D2D2D2" stop-opacity="0" offset="100%"></stop>
    </linearGradient>
    <linearGradient x1="50%" y1="-169.203289%" x2="50%" y2="100%" id="linearGradient-6">
      <stop stop-color="#D2D2D2" offset="0%"></stop>
      <stop stop-color="#D2D2D2" stop-opacity="0" offset="100%"></stop>
    </linearGradient>
    <linearGradient x1="67.5652976%" y1="48.1623559%" x2="73.0360423%" y2="53.7140809%" id="linearGradient-7">
      <stop stop-color="#858585" stop-opacity="0" offset="0%"></stop>
      <stop stop-color="#616161" stop-opacity="0.5" offset="100%"></stop>
    </linearGradient>
    <linearGradient x1="-9.08348309%" y1="47.022939%" x2="63.3066492%" y2="54.245856%" id="linearGradient-8">
      <stop stop-color="#F2F2F2" offset="0%"></stop>
      <stop stop-color="#E9E9E9" offset="100%"></stop>
    </linearGradient>
    <linearGradient x1="1.72272354%" y1="41.8095039%" x2="92.5758819%" y2="53.652656%" id="linearGradient-9">
      <stop stop-color="#CAC9C6" offset="0%"></stop>
      <stop stop-color="#FADCD9" offset="100%"></stop>
    </linearGradient>
    <linearGradient x1="86.9837629%" y1="112.704857%" x2="22.9353145%" y2="0%" id="linearGradient-10">
      <stop stop-color="#C5C5C5" offset="0%"></stop>
      <stop stop-color="#FFFFFF" offset="100%"></stop>
    </linearGradient>
    <linearGradient x1="4.19072878%" y1="69.4021704%" x2="59.1408008%" y2="20.0853615%" id="linearGradient-11">
      <stop stop-color="#E3E3E3" offset="0%"></stop>
      <stop stop-color="#D3D3D3" offset="100%"></stop>
    </linearGradient>
    <linearGradient x1="37.5919754%" y1="24.9198125%" x2="99.3131258%" y2="149.654577%" id="linearGradient-12">
      <stop stop-color="#E5E5E5" offset="0%"></stop>
      <stop stop-color="#E8E8E8" offset="100%"></stop>
    </linearGradient>
    <linearGradient x1="77.3304067%" y1="62.0508726%" x2="59.1051597%" y2="6.22518503%" id="linearGradient-13">
      <stop stop-color="#DDDDDD" offset="0%"></stop>
      <stop stop-color="#D3D3D3" offset="100%"></stop>
    </linearGradient>
    <linearGradient x1="71.2004482%" y1="64.3504944%" x2="-8.13839473%" y2="3.87749069%" id="linearGradient-14">
      <stop stop-color="#EEEEEE" offset="0%"></stop>
      <stop stop-color="#DADBDA" offset="100%"></stop>
    </linearGradient>
    <linearGradient x1="22.3257168%" y1="35.5565066%" x2="122.456702%" y2="88.3303601%" id="linearGradient-15">
      <stop stop-color="#FAFAFA" offset="0%"></stop>
      <stop stop-color="#EBEBEB" offset="100%"></stop>
    </linearGradient>
    <linearGradient x1="84.189723%" y1="0%" x2="23.8834069%" y2="96.2345237%" id="linearGradient-16">
      <stop stop-color="#DDDDDD" offset="0%"></stop>
      <stop stop-color="#DCDCDC" offset="100%"></stop>
    </linearGradient>
    <linearGradient x1="0.865709459%" y1="56.2630478%" x2="100%" y2="44.3810512%" id="linearGradient-17">
      <stop stop-color="#D4FFF3" offset="0%"></stop>
      <stop stop-color="#07C08E" offset="100%"></stop>
    </linearGradient>
    <linearGradient x1="66.7206787%" y1="46.5395239%" x2="50%" y2="56.3439558%" id="linearGradient-18">
      <stop stop-color="#FD9388" offset="0%"></stop>
      <stop stop-color="#F25C4D" offset="100%"></stop>
    </linearGradient>
    <polygon id="path-19" points="31.4650968 0 0 5.93840949 7.99960087 11.2280672"></polygon>
    <linearGradient x1="-61.5383635%" y1="100.047276%" x2="97.8485457%" y2="14.1486469%" id="linearGradient-20">
      <stop stop-color="#CAF5E9" offset="0%"></stop>
      <stop stop-color="#05C28E" offset="100%"></stop>
    </linearGradient>
    <polygon id="path-21" points="31.4650968 0 7.99960087 11.2280672 7.99960087 20.1887395"></polygon>
    <linearGradient x1="22.5461351%" y1="73.8345127%" x2="82.9184903%" y2="17.1779742%" id="linearGradient-22">
      <stop stop-color="#E52D21" offset="0%"></stop>
      <stop stop-color="#F25C4D" offset="100%"></stop>
    </linearGradient>
    <linearGradient x1="66.7206787%" y1="23.9937767%" x2="50%" y2="97.6761942%" id="linearGradient-23">
      <stop stop-color="#FD9388" offset="0%"></stop>
      <stop stop-color="#F25C4D" offset="100%"></stop>
    </linearGradient>
    <path d="M7.99960087,11.2280672 L7.99960087,19.9207046" id="path-24"></path>
  </defs>
  <g id="页面-1" stroke="none" stroke-width="1" fill="none" fill-rule="evenodd">
    <g id="任务-待提货-列表未空" transform="translate(-87.000000, -337.000000)">
      <g id="不存在-2" transform="translate(87.500000, 337.393282)">
        <g id="不存在" transform="translate(1.199991, 7.000000)">
          <g id="编组-2" fill-rule="nonzero">
            <path d="M39.0696556,84.7683103 C34.84929,82.8661873 30.2733867,77.7632507 31.5704413,72.9620295 C32.2191849,72.7966178 32.9017461,73.0601723 33.2691219,73.617934 C33.2691219,73.617934 40.5905674,85.0109949 38.5363489,74.5296416 C37.5684959,69.603799 35.9027355,64.8419325 35.7710548,59.7521138 C35.5537817,50.5038608 44.0735212,47.9392744 46.5227817,58.158266 C46.8453994,59.5094293 48.0831976,70.4958289 50.901164,69.2364925 C51.2641268,69.0463162 51.5586693,68.7483065 51.7439204,68.3838168 C53.1726557,66.0487968 53.6006179,62.6184165 56.2210632,61.8247722 C58.5188909,61.1032771 60.7837987,63.0906678 62.0215967,65.1436485 C64.5301137,69.315201 67.8879707,79.6850503 62.7524248,83.2006982 C57.6168783,86.7163462 44.6595001,87.2738652 39.1157438,84.8142232 L39.0696556,84.7683103 Z" id="路径" fill="url(#linearGradient-1)"></path>
            <path d="M145.691496,95.8596547 C143.834799,91.6290709 143.880887,84.7879874 148.094669,82.0856609 C148.690206,82.4045431 149.01185,83.0692212 148.891337,83.7319809 C148.891337,83.7319809 146.646181,97.0796369 152.183354,87.9297697 C154.816967,83.6204774 156.792177,78.9832329 160.084194,75.1199555 C166.134921,68.0755417 174.200362,71.8994643 169.13724,81.114922 C168.478837,82.3349047 161.98698,91.3076778 164.923459,92.2652983 C165.321008,92.3626941 165.738873,92.3375341 166.121753,92.1931485 C168.755366,91.4191813 171.388979,89.1628703 173.877744,90.3041439 C176.063643,91.3076778 176.406013,94.285484 175.945131,96.6401811 C174.99703,101.408606 170.349752,106.741117 164.173928,105.914677 C157.866424,105.062001 148.140757,101.434843 145.711248,95.9055682 L145.691496,95.8596547 Z" id="路径" fill="url(#linearGradient-2)"></path>
            <path d="M197.600018,105.91467 C172.771627,88.9464215 137.685312,78.3666826 98.8000086,78.3666826 C59.9147061,78.3666826 24.8283909,88.9464215 0,105.91467 L197.600018,105.91467 Z" id="路径" fill="url(#linearGradient-3)"></path>
            <path d="M156.509064,54.754122 C154.93548,56.721835 153.928123,59.5094293 154.869639,62.0018662 C155.521459,63.720336 157.4835,63.7334539 157.345236,66.120946 C157.209855,67.3130661 156.799753,68.4578904 156.146942,69.4660592 C155.034532,71.4043965 153.670903,73.1884685 152.091177,74.7723261 C153.407975,75.7955738 154.077853,77.4401692 153.849114,79.0881776 C153.59086,80.7239394 152.813233,82.2342128 151.630295,83.3974699 C151.281987,83.8217783 150.827896,84.1474837 150.313488,84.3419725 C149.815271,84.4566105 149.297378,84.4566105 148.79916,84.3419725 C146.349531,83.9277994 143.971062,83.1703726 141.734492,82.0922201 C140.338677,81.4297564 138.916525,80.524608 138.442476,79.0816184 C137.899292,77.4254596 138.762933,76.8991987 139.705658,76.380304 L139.94898,76.2463294 C140.435766,75.9758773 140.913369,75.681925 141.201185,75.2117819 C141.892509,74.0836266 141.912261,72.5750459 142.155871,71.3157095 C142.511408,69.4595 141.984685,66.0750331 144.315433,65.3469788 C145.217446,65.06494 146.198467,65.1305306 147.100479,64.8419325 C149.059961,64.2206453 149.871159,62.3843961 150.656539,60.5277344 L150.7993,60.1902005 C151.25206,59.122315 151.718813,58.0716621 152.413794,57.2662361 C153.4014,56.1184032 155.85066,55.554325 156.509064,54.754122 Z M150.820458,65.766758 C150.820458,65.766758 143.729454,74.0049176 143.959896,81.6199688 L146.251139,81.6199688 C146.251139,81.6199688 147.080727,72.4373061 150.820458,65.766758 Z" id="形状结合" fill="url(#linearGradient-4)"></path>
            <path d="M55.5363235,11.6939936 L55.5363235,11.6939936 C55.5729505,9.15145333 53.74997,6.95910434 51.235516,6.52176492 C48.7210622,6.0844255 46.260211,7.5316869 45.4298321,9.9361696 C43.8455972,9.90523307 42.3707932,10.7383777 41.5841733,12.1086548 C40.7975535,13.4789319 40.8246253,15.1677096 41.6547651,16.5122658 C42.4849049,17.8568219 43.9856613,18.6426284 45.5680968,18.5613133 L55.1083614,18.5613133 C56.9197553,18.5372432 58.4064688,17.1265498 58.5187176,15.3253381 C58.630967,13.5241265 57.3308196,11.9410754 55.5363235,11.6939936 L55.5363235,11.6939936 Z" id="路径" fill="url(#linearGradient-5)"></path>
            <path d="M94.9681012,6.48611214 L94.9681012,6.45331691 C94.9642214,3.31071342 92.6909769,0.626729867 89.5820403,0.0940806173 C86.4731042,-0.43856863 83.4303862,1.33463935 82.3728448,4.29539121 C79.3820196,4.3424832 76.9957984,6.79599941 77.0430696,9.77547302 C77.0903409,12.7549466 79.5532047,15.1321117 82.5440298,15.0850197 L94.3952903,15.0850197 C96.6786302,15.0890733 98.5706643,13.321927 98.713638,11.0517131 C98.8566117,8.78149919 97.2011247,6.79262938 94.9351812,6.51234831 L94.9681012,6.48611214 Z" id="路径" fill="url(#linearGradient-6)"></path>
          </g>
          <polygon id="矩形" fill="url(#linearGradient-7)" fill-rule="nonzero" points="33.0650169 74.9108491 61.2436041 74.9108491 89.5955298 90.318045 61.7458259 89.6113142"></polygon>
          <polygon id="路径" fill="url(#linearGradient-8)" fill-rule="nonzero" points="93.3813489 40.0823219 93.1048197 57.6343252 133.40569 45.4804157"></polygon>
          <polygon id="路径" fill="url(#linearGradient-9)" fill-rule="nonzero" points="61.2776013 47.146413 93.3813489 40.1544714 93.3813489 50.812919"></polygon>
          <polygon id="路径" fill="url(#linearGradient-10)" fill-rule="nonzero" points="61.2776013 47.146413 99.1687145 50.8850685 99.1687145 98.6480315 61.2776013 89.5112822"></polygon>
          <polygon id="矩形" fill="url(#linearGradient-11)" fill-rule="nonzero" points="61.2776013 47.146413 99.1950508 50.73749 95.0667554 73.7970873 61.2776013 66.7847167"></polygon>
          <polygon id="路径" fill="url(#linearGradient-12)" fill-rule="nonzero" opacity="0.99" points="99.1687145 50.8850685 133.40569 45.4804157 133.40569 88.2650637 99.1687145 98.6480315"></polygon>
          <polygon id="矩形" fill="url(#linearGradient-13)" fill-rule="nonzero" points="99.1950508 51.0031313 130.188629 46.0666265 133.40569 66.2647595 103.776465 73.7970873"></polygon>
          <polygon id="路径" fill="url(#linearGradient-14)" fill-rule="nonzero" points="61.2776013 47.146413 52.1652985 62.5142548 90.418534 69.7816761 99.1687145 50.8850685"></polygon>
          <polygon id="路径" fill="url(#linearGradient-15)" fill-rule="nonzero" opacity="0.99" points="99.1687145 50.8850685 109.927026 69.7816761 144.40761 61.1630916 133.40569 45.4804157"></polygon>
          <path d="M113.061026,27.6266961 C103.326833,33.9842733 97.3697632,39.6392574 99.1407143,43.1409319 C101.547793,47.9004117 105.635561,45.9245451 106.255877,43.9275535 C106.876192,41.9305618 105.169084,38.0323991 101.547793,40.1544714 C97.9265029,42.2765437 93.9806475,46.0821159 93.1048197,49.8093851" id="路径-19" stroke="url(#linearGradient-16)" stroke-dasharray="2,2"></path>
          <g id="飞机" transform="translate(107.649088, 7.969239)">
            <g id="路径-16备份" fill-rule="nonzero">
              <use fill="url(#linearGradient-17)" xlink:href="#path-19"></use>
              <use fill="url(#linearGradient-18)" xlink:href="#path-19"></use>
            </g>
            <g id="路径-16备份-2" fill-rule="nonzero">
              <use fill="url(#linearGradient-20)" xlink:href="#path-21"></use>
              <use fill="#E73327" xlink:href="#path-21"></use>
            </g>
            <polygon id="路径-16备份-2" fill="url(#linearGradient-22)" fill-rule="nonzero" points="31.4650968 0 7.99960087 11.2280672 12.6377321 16.2012257"></polygon>
            <polygon id="路径-16备份" fill="url(#linearGradient-23)" fill-rule="nonzero" points="31.4650968 0 11.3704357 13.4859592 21.0242839 19.6574568"></polygon>
            <line x1="7.99960087" y1="11.2280672" x2="0.0967999826" y2="6.18150157" id="路径-16" stroke="#DF3C31" stroke-linecap="round"></line>
            <line x1="11.5243087" y1="13.6779268" x2="20.7728674" y2="19.5822987" id="路径-17" stroke="#DF3C31" stroke-linecap="round"></line>
            <g id="路径-18" stroke-linecap="round">
              <use stroke="#9AC2FD" xlink:href="#path-24"></use>
              <use stroke="#E52E22" xlink:href="#path-24"></use>
            </g>
          </g>
        </g>
      </g>
    </g>
  </g>
</svg>
