<?xml version="1.0" encoding="UTF-8"?>
<svg xmlns="http://www.w3.org/2000/svg" xmlns:xlink="http://www.w3.org/1999/xlink" width="23px" height="23px" viewBox="0 0 23 23" version="1.1">
  <!-- Generator: Sketch 63 (92445) - https://sketch.com -->
  <title>btn_mine_nor@2x</title>
  <desc>Created with Sketch.</desc>
  <g id="页面-1" stroke="none" stroke-width="1" fill="none" fill-rule="evenodd">
    <g id="列表页-通用下拉刷新动效示意" transform="translate(-301.000000, -735.000000)">
      <g id="btn_test_sel备份-2" transform="translate(301.500000, 735.967041)">
        <path d="M11,0.989956706 L15.4639966,0.989956706 C16.2924237,0.989956706 16.9639966,1.66152958 16.9639966,2.48995671 L16.9639966,6.95395333 C16.9639966,10.2477777 14.2938244,12.91795 11,12.91795 C7.70617562,12.91795 5.03600338,10.2477777 5.03600338,6.95395333 C5.03600338,3.66012895 7.70617562,0.989956706 11,0.989956706 Z" id="矩形" fill="#818181"></path>
        <path d="M5.14660107,14.1027207 L16.8533989,14.1027207 C18.5102532,14.1027207 19.8533989,15.4458664 19.8533989,17.1027207 L19.8533989,19.5100433 C19.8533989,20.3384704 19.1818261,21.0100433 18.3533989,21.0100433 L3.64660107,21.0100433 C2.81817394,21.0100433 2.14660107,20.3384704 2.14660107,19.5100433 L2.14660107,17.1027207 C2.14660107,15.4458664 3.48974682,14.1027207 5.14660107,14.1027207 Z" id="矩形" fill="#C2C1C1"></path>
        <rect id="矩形" x="0" y="0" width="22" height="22"></rect>
      </g>
    </g>
  </g>
</svg>
