<?xml version="1.0" encoding="UTF-8"?>
<svg xmlns="http://www.w3.org/2000/svg" xmlns:xlink="http://www.w3.org/1999/xlink" width="16px" height="16px" viewBox="0 0 16 16" version="1.1">
  <title>眼睛3</title>
  <g id="页面-1" stroke="none" stroke-width="1" fill="none" fill-rule="evenodd">
    <g id="账号登录" transform="translate(-314.000000, -272.000000)" fill="#2A2929" fill-rule="nonzero">
      <g id="眼睛3" transform="translate(314.000000, 272.000000)">
        <rect id="矩形" opacity="0" x="0" y="0" width="16" height="16"></rect>
        <path d="M15.9177778,7.51111111 C15.9177778,7.51111111 15.8511111,7.31111111 15.7844444,7.24444444 L15.4511111,6.57777778 C15.1177778,6.04444445 14.6511111,5.37777778 13.9844444,4.64444444 C12.7177778,3.24444444 10.7177778,1.77777778 7.98444444,1.77777778 C5.25111109,1.77777778 3.25111111,3.24444445 1.98444444,4.64444444 C1.31777777,5.37777777 0.851111109,6.04444444 0.517777781,6.57777778 C0.384444453,6.84444445 0.251111109,7.04444445 0.184444438,7.24444444 C0.117777766,7.31111111 0.0511111094,7.51111111 0.0511111094,7.51111111 C-0.0155555625,7.71111111 -0.0155555625,7.91111111 0.0511111094,8.04444444 C0.0511111094,8.04444444 0.117777781,8.24444444 0.184444438,8.31111111 L0.517777781,8.97777778 C0.851111109,9.51111111 1.31777778,10.1777778 1.98444444,10.9111111 C3.25111111,12.3111111 5.25111111,13.7777778 7.98444444,13.7777778 C10.7177778,13.7777778 12.7177778,12.3111111 13.9844444,10.9111111 C14.6511111,10.1777778 15.1177778,9.51111111 15.4511111,8.97777778 C15.5844444,8.71111111 15.7177778,8.51111111 15.7844444,8.31111111 C15.8511111,8.24444444 15.9177778,8.04444444 15.9177778,8.04444444 C15.9844445,7.84444444 15.9844445,7.71111111 15.9177778,7.51111111 Z M14.3177778,8.24444444 C14.0511111,8.71111111 13.5844445,9.37777777 13.0511111,9.97777778 C11.8511111,11.2444445 10.1844444,12.4444444 7.98444444,12.4444444 C5.78444444,12.4444444 4.11777777,11.2444444 2.91777778,9.97777778 C2.31777778,9.37777778 1.91777778,8.71111111 1.65111111,8.24444444 C1.51777778,8.04444444 1.45111111,7.91111111 1.38444444,7.77777778 C1.45111111,7.64444445 1.51777777,7.51111111 1.65111111,7.31111111 C1.98444444,6.84444444 2.38444444,6.17777778 2.91777778,5.57777778 C4.11777778,4.31111111 5.78444444,3.11111111 7.98444444,3.11111111 C10.1844444,3.11111111 11.8511111,4.31111111 13.0511111,5.57777778 C13.6511111,6.17777778 14.0511111,6.84444445 14.3177778,7.31111111 C14.4511111,7.51111111 14.5177778,7.64444444 14.5844444,7.77777778 C14.5177778,7.91111111 14.3844444,8.04444445 14.3177778,8.24444444 Z M7.98444444,5.37777778 C6.78444444,5.37777778 5.71777778,6.44444445 5.71777778,7.77777778 C5.71777778,9.11111111 6.78444445,10.1777778 7.98444444,10.1777778 C9.18444444,10.1777778 10.2511111,9.11111111 10.2511111,7.77777778 C10.2511111,6.44444445 9.18444444,5.37777778 7.98444444,5.37777778 Z M4.38444444,7.77777778 C4.38444444,5.77777778 5.98444444,4.04444444 7.98444444,4.04444444 C9.98444444,4.04444444 11.5844444,5.77777777 11.5844444,7.77777778 C11.5844444,9.7777778 9.98444444,11.5111111 7.98444444,11.5111111 C5.98444444,11.5111111 4.38444444,9.77777778 4.38444444,7.77777778 Z" id="形状"></path>
      </g>
    </g>
  </g>
</svg>
